####
#
# OBJ File Generated by Meshlab
#
####
# Object RARM_JOINT5_Link_mesh.obj
#
# Vertices: 208
# Faces: 408
#
####
vn -3.137285 -0.000000 -3.036849
v -0.031500 0.000000 0.000000
vn -3.120106 0.327913 3.036911
v -0.031327 0.003293 0.012500
vn -3.120106 0.327913 -3.036911
v -0.031327 0.003293 0.000000
vn -3.068733 0.652250 3.036838
v -0.030812 0.006549 0.012500
vn -3.068733 0.652251 -3.036837
v -0.030812 0.006549 0.000000
vn -2.983733 0.969491 3.036879
v -0.029958 0.009734 0.012500
vn -2.983734 0.969490 -3.036882
v -0.029958 0.009734 0.000000
vn -2.866051 1.276058 3.036870
v -0.028777 0.012812 0.012500
vn -2.866051 1.276057 -3.036869
v -0.028777 0.012812 0.000000
vn -2.716954 1.568669 3.036862
v -0.027280 0.015750 0.012500
vn -2.716954 1.568670 -3.036863
v -0.027280 0.015750 0.000000
vn -2.538127 1.844045 3.036910
v -0.025484 0.018515 0.012500
vn -2.538127 1.844045 -3.036909
v -0.025484 0.018515 0.000000
vn -2.331480 2.099229 3.036851
v -0.023409 0.021078 0.012500
vn -2.331480 2.099229 -3.036851
v -0.023409 0.021078 0.000000
vn -2.099229 2.331480 3.036851
v -0.021078 0.023409 0.012500
vn -2.099229 2.331480 -3.036851
v -0.021078 0.023409 0.000000
vn -1.844045 2.538127 3.036910
v -0.018515 0.025484 0.012500
vn -1.844045 2.538127 -3.036909
v -0.018515 0.025484 0.000000
vn -1.568670 2.716954 3.036862
v -0.015750 0.027280 0.012500
vn -1.568669 2.716954 -3.036862
v -0.015750 0.027280 0.000000
vn -1.276058 2.866050 3.036870
v -0.012812 0.028777 0.012500
vn -1.276057 2.866051 -3.036870
v -0.012812 0.028777 0.000000
vn -0.969490 2.983733 3.036880
v -0.009734 0.029958 0.012500
vn -0.969490 2.983733 -3.036881
v -0.009734 0.029958 0.000000
vn -0.652250 3.068733 3.036838
v -0.006549 0.030812 0.012500
vn -0.652252 3.068733 -3.036836
v -0.006549 0.030812 0.000000
vn -0.327913 3.120106 3.036911
v -0.003293 0.031327 0.012500
vn -0.327913 3.120106 -3.036911
v -0.003293 0.031327 0.000000
vn 0.000000 3.137285 3.036849
v 0.000000 0.031500 0.012500
vn -0.000000 3.137285 -3.036849
v -0.000000 0.031500 0.000000
vn 0.327913 3.120106 3.036911
v 0.003293 0.031327 0.012500
vn 0.327913 3.120106 -3.036911
v 0.003293 0.031327 0.000000
vn 0.652250 3.068733 3.036838
v 0.006549 0.030812 0.012500
vn 0.652251 3.068733 -3.036837
v 0.006549 0.030812 0.000000
vn 0.969491 2.983733 3.036879
v 0.009734 0.029958 0.012500
vn 0.969490 2.983734 -3.036881
v 0.009734 0.029958 0.000000
vn 1.276058 2.866051 3.036870
v 0.012812 0.028777 0.012500
vn 1.276057 2.866051 -3.036870
v 0.012812 0.028777 0.000000
vn 1.568669 2.716954 3.036862
v 0.015750 0.027280 0.012500
vn 1.568670 2.716954 -3.036862
v 0.015750 0.027280 0.000000
vn 1.844045 2.538127 3.036910
v 0.018515 0.025484 0.012500
vn 1.844045 2.538127 -3.036910
v 0.018515 0.025484 0.000000
vn 2.099229 2.331480 3.036851
v 0.021078 0.023409 0.012500
vn 2.099229 2.331480 -3.036851
v 0.021078 0.023409 0.000000
vn 2.331480 2.099229 3.036851
v 0.023409 0.021078 0.012500
vn 2.331480 2.099229 -3.036851
v 0.023409 0.021078 0.000000
vn 2.538127 1.844045 3.036910
v 0.025484 0.018515 0.012500
vn 2.538127 1.844045 -3.036910
v 0.025484 0.018515 0.000000
vn 2.716954 1.568670 3.036862
v 0.027280 0.015750 0.012500
vn 2.716954 1.568669 -3.036863
v 0.027280 0.015750 0.000000
vn 2.866050 1.276058 3.036870
v 0.028777 0.012812 0.012500
vn 2.866051 1.276057 -3.036870
v 0.028777 0.012812 0.000000
vn 2.983733 0.969490 3.036880
v 0.029958 0.009734 0.012500
vn 2.983733 0.969490 -3.036882
v 0.029958 0.009734 0.000000
vn 3.068733 0.652250 3.036838
v 0.030812 0.006549 0.012500
vn 3.068733 0.652252 -3.036837
v 0.030812 0.006549 0.000000
vn 3.120106 0.327913 3.036911
v 0.031327 0.003293 0.012500
vn 3.120106 0.327913 -3.036912
v 0.031327 0.003293 0.000000
vn 3.137285 -0.000000 3.036849
v 0.031500 0.000000 0.012500
vn 3.137285 0.000000 -0.000000
v 0.031500 0.000000 0.000000
vn 3.120106 -0.327913 3.036911
v 0.031327 -0.003293 0.012500
vn 3.120106 -0.327913 -3.036911
v 0.031327 -0.003293 0.000000
vn 3.068733 -0.652250 3.036838
v 0.030812 -0.006549 0.012500
vn 3.068733 -0.652251 -3.036837
v 0.030812 -0.006549 0.000000
vn 2.983733 -0.969491 3.036879
v 0.029958 -0.009734 0.012500
vn 2.983734 -0.969490 -3.036882
v 0.029958 -0.009734 0.000000
vn 2.866051 -1.276058 3.036870
v 0.028777 -0.012812 0.012500
vn 2.866051 -1.276057 -3.036869
v 0.028777 -0.012812 0.000000
vn 2.716954 -1.568669 3.036862
v 0.027280 -0.015750 0.012500
vn 2.716954 -1.568670 -3.036863
v 0.027280 -0.015750 0.000000
vn 2.538127 -1.844045 3.036910
v 0.025484 -0.018515 0.012500
vn 2.538127 -1.844045 -3.036909
v 0.025484 -0.018515 0.000000
vn 2.331480 -2.099229 3.036851
v 0.023409 -0.021078 0.012500
vn 2.331480 -2.099229 -3.036851
v 0.023409 -0.021078 0.000000
vn 2.099229 -2.331480 3.036851
v 0.021078 -0.023409 0.012500
vn 2.099229 -2.331480 -3.036851
v 0.021078 -0.023409 0.000000
vn 1.844045 -2.538127 3.036910
v 0.018515 -0.025484 0.012500
vn 1.844045 -2.538127 -3.036909
v 0.018515 -0.025484 0.000000
vn 1.568670 -2.716954 3.036862
v 0.015750 -0.027280 0.012500
vn 1.568669 -2.716954 -3.036862
v 0.015750 -0.027280 0.000000
vn 1.276058 -2.866050 3.036870
v 0.012812 -0.028777 0.012500
vn 1.276057 -2.866051 -3.036870
v 0.012812 -0.028777 0.000000
vn 0.969490 -2.983733 3.036880
v 0.009734 -0.029958 0.012500
vn 0.969490 -2.983733 -3.036881
v 0.009734 -0.029958 0.000000
vn 0.652250 -3.068733 3.036838
v 0.006549 -0.030812 0.012500
vn 0.652252 -3.068733 -3.036836
v 0.006549 -0.030812 0.000000
vn 0.327913 -3.120106 3.036911
v 0.003293 -0.031327 0.012500
vn 0.327913 -3.120106 -3.036911
v 0.003293 -0.031327 0.000000
vn -0.000000 -3.137285 3.036849
v 0.000000 -0.031500 0.012500
vn 0.000000 -3.137285 -3.036849
v 0.000000 -0.031500 0.000000
vn -0.327913 -3.120106 3.036911
v -0.003293 -0.031327 0.012500
vn -0.327913 -3.120106 -3.036911
v -0.003293 -0.031327 0.000000
vn -0.652250 -3.068733 3.036838
v -0.006549 -0.030812 0.012500
vn -0.652251 -3.068733 -3.036837
v -0.006549 -0.030812 0.000000
vn -0.969491 -2.983733 3.036879
v -0.009734 -0.029958 0.012500
vn -0.969490 -2.983734 -3.036881
v -0.009734 -0.029958 0.000000
vn -1.276058 -2.866051 3.036870
v -0.012812 -0.028777 0.012500
vn -1.276057 -2.866051 -3.036870
v -0.012812 -0.028777 0.000000
vn -1.568669 -2.716954 3.036862
v -0.015750 -0.027280 0.012500
vn -1.568670 -2.716954 -3.036862
v -0.015750 -0.027280 0.000000
vn -1.844045 -2.538127 3.036910
v -0.018515 -0.025484 0.012500
vn -1.844045 -2.538127 -3.036910
v -0.018515 -0.025484 0.000000
vn -2.099229 -2.331480 3.036851
v -0.021078 -0.023409 0.012500
vn -2.099229 -2.331480 -3.036851
v -0.021078 -0.023409 0.000000
vn -2.331480 -2.099229 3.036851
v -0.023409 -0.021078 0.012500
vn -2.331480 -2.099229 -3.036851
v -0.023409 -0.021078 0.000000
vn -2.538127 -1.844045 3.036910
v -0.025484 -0.018515 0.012500
vn -2.538127 -1.844045 -3.036910
v -0.025484 -0.018515 0.000000
vn -2.716954 -1.568670 3.036862
v -0.027280 -0.015750 0.012500
vn -2.716954 -1.568669 -3.036863
v -0.027280 -0.015750 0.000000
vn -2.866050 -1.276058 3.036870
v -0.028777 -0.012812 0.012500
vn -2.866051 -1.276057 -3.036870
v -0.028777 -0.012812 0.000000
vn -2.983733 -0.969490 3.036880
v -0.029958 -0.009734 0.012500
vn -2.983733 -0.969490 -3.036882
v -0.029958 -0.009734 0.000000
vn -3.068733 -0.652250 3.036838
v -0.030812 -0.006549 0.012500
vn -3.068733 -0.652252 -3.036837
v -0.030812 -0.006549 0.000000
vn -3.120106 -0.327913 3.036911
v -0.031327 -0.003293 0.012500
vn -3.120106 -0.327913 -3.036912
v -0.031327 -0.003293 0.000000
vn -3.137285 0.000000 3.036849
v -0.031500 0.000000 0.012500
vn 0.000000 0.000000 6.283216
v 0.000000 0.000000 0.012500
vn -0.234152 3.124043 -3.291216
v 0.001177 -0.015706 0.000000
vn 0.234152 3.124043 -3.291216
v -0.001177 -0.015706 0.000000
vn 0.697119 3.054267 -3.291145
v -0.003505 -0.015355 0.000000
vn 2.993631 0.923396 -3.291191
v -0.015050 -0.004642 0.000000
vn 3.097820 0.466903 -3.291194
v -0.015574 -0.002347 0.000000
vn 0.000000 0.000000 -3.291180
v -0.015750 0.000000 0.000000
vn 3.097820 -0.466903 -3.291194
v -0.015574 0.002347 0.000000
vn 1.144531 -2.916249 -3.291229
v -0.005754 0.014661 0.000000
vn 0.697119 -3.054267 -3.291146
v -0.003505 0.015355 0.000000
vn 0.234152 -3.124043 -3.291216
v -0.001177 0.015706 0.000000
vn 2.588440 1.764784 -3.291199
v -0.013013 -0.008872 0.000000
vn 2.822565 1.359268 -3.291199
v -0.014190 -0.006834 0.000000
vn 1.953274 2.449333 -3.291155
v -0.009820 -0.012314 0.000000
vn 2.296482 2.130879 -3.291203
v -0.011546 -0.010713 0.000000
vn -0.697119 -3.054267 -3.291145
v 0.003505 0.015355 0.000000
vn -1.144531 -2.916249 -3.291229
v 0.005754 0.014661 0.000000
vn -1.566447 -2.713066 -3.291195
v 0.007875 0.013640 0.000000
vn -1.953274 -2.449333 -3.291155
v 0.009820 0.012314 0.000000
vn -0.234152 -3.124043 -3.291216
v 0.001177 0.015706 0.000000
vn 2.296483 -2.130879 -3.291203
v -0.011546 0.010713 0.000000
vn 1.953274 -2.449333 -3.291156
v -0.009820 0.012314 0.000000
vn 1.566447 -2.713067 -3.291195
v -0.007875 0.013640 0.000000
vn 1.144531 2.916249 -3.291229
v -0.005754 -0.014661 0.000000
vn 1.566447 2.713066 -3.291195
v -0.007875 -0.013640 0.000000
vn -1.144531 2.916249 -3.291229
v 0.005754 -0.014661 0.000000
vn -0.697119 3.054267 -3.291146
v 0.003505 -0.015355 0.000000
vn -2.296483 2.130879 -3.291203
v 0.011546 -0.010713 0.000000
vn -1.953274 2.449333 -3.291156
v 0.009820 -0.012314 0.000000
vn -1.566447 2.713067 -3.291195
v 0.007875 -0.013640 0.000000
vn -2.588440 -1.764784 -3.291199
v 0.013013 0.008872 0.000000
vn -2.822565 -1.359268 -3.291199
v 0.014190 0.006834 0.000000
vn -2.993631 -0.923396 -3.291191
v 0.015050 0.004642 0.000000
vn 2.822565 -1.359268 -3.291200
v -0.014190 0.006834 0.000000
vn 2.588440 -1.764784 -3.291199
v -0.013013 0.008872 0.000000
vn -3.097820 0.466903 -3.291194
v 0.015574 -0.002347 0.000000
vn -2.993631 0.923396 -3.291191
v 0.015050 -0.004642 0.000000
vn -2.822565 1.359268 -3.291200
v 0.014190 -0.006834 0.000000
vn -2.296482 -2.130879 -3.291203
v 0.011546 0.010713 0.000000
vn -3.097820 -0.466903 -3.291194
v 0.015574 0.002347 0.000000
vn -3.132810 0.000000 -3.291180
v 0.015750 0.000000 0.000000
vn 0.000000 0.000000 -3.036849
v 0.031500 0.000000 0.000000
vn 2.993631 -0.923396 -3.291191
v -0.015050 0.004642 0.000000
vn -2.588440 1.764784 -3.291199
v 0.013013 -0.008872 0.000000
vn 3.132810 0.000000 -2.992006
v -0.015750 0.000000 0.006000
vn 3.132810 0.000000 -0.000000
v -0.015750 -0.000000 0.000000
vn 3.097820 -0.466903 -2.991992
v -0.015574 0.002347 0.006000
vn 2.993631 -0.923396 -2.991993
v -0.015050 0.004642 0.006000
vn 2.822565 -1.359268 -2.991986
v -0.014190 0.006834 0.006000
vn 2.588440 -1.764784 -2.991987
v -0.013013 0.008872 0.006000
vn 2.296482 -2.130879 -2.991982
v -0.011546 0.010713 0.006000
vn 1.953274 -2.449333 -2.992029
v -0.009820 0.012314 0.006000
vn 1.566447 -2.713066 -2.991991
v -0.007875 0.013640 0.006000
vn 1.144531 -2.916249 -2.991956
v -0.005754 0.014661 0.006000
vn 0.697119 -3.054267 -2.992039
v -0.003505 0.015355 0.006000
vn 0.234152 -3.124043 -2.991969
v -0.001177 0.015706 0.006000
vn -0.234152 -3.124043 -2.991969
v 0.001177 0.015706 0.006000
vn -0.697119 -3.054267 -2.992039
v 0.003505 0.015355 0.006000
vn -1.144531 -2.916249 -2.991956
v 0.005754 0.014661 0.006000
vn -1.566447 -2.713067 -2.991991
v 0.007875 0.013640 0.006000
vn -1.953274 -2.449333 -2.992029
v 0.009820 0.012314 0.006000
vn -2.296483 -2.130880 -2.991982
v 0.011546 0.010713 0.006000
vn -2.588440 -1.764784 -2.991987
v 0.013013 0.008872 0.006000
vn -2.822565 -1.359268 -2.991986
v 0.014190 0.006834 0.006000
vn -2.993631 -0.923396 -2.991993
v 0.015050 0.004642 0.006000
vn -3.097820 -0.466903 -2.991992
v 0.015574 0.002347 0.006000
vn -3.132810 0.000000 -2.992006
v 0.015750 0.000000 0.006000
vn -3.097820 0.466903 -2.991992
v 0.015574 -0.002347 0.006000
vn -2.993631 0.923396 -2.991993
v 0.015050 -0.004642 0.006000
vn -2.822565 1.359268 -2.991986
v 0.014190 -0.006834 0.006000
vn -2.588440 1.764784 -2.991987
v 0.013013 -0.008872 0.006000
vn -2.296482 2.130879 -2.991982
v 0.011546 -0.010713 0.006000
vn -1.953274 2.449333 -2.992029
v 0.009820 -0.012314 0.006000
vn -1.566447 2.713066 -2.991991
v 0.007875 -0.013640 0.006000
vn -1.144531 2.916249 -2.991956
v 0.005754 -0.014661 0.006000
vn -0.697119 3.054267 -2.992039
v 0.003505 -0.015355 0.006000
vn -0.234152 3.124043 -2.991969
v 0.001177 -0.015706 0.006000
vn 0.234152 3.124043 -2.991969
v -0.001177 -0.015706 0.006000
vn 0.697119 3.054267 -2.992039
v -0.003505 -0.015355 0.006000
vn 1.144531 2.916249 -2.991956
v -0.005754 -0.014661 0.006000
vn 1.566447 2.713067 -2.991991
v -0.007875 -0.013640 0.006000
vn 1.953274 2.449333 -2.992029
v -0.009820 -0.012314 0.006000
vn 2.296483 2.130880 -2.991982
v -0.011546 -0.010713 0.006000
vn 2.588440 1.764784 -2.991987
v -0.013013 -0.008872 0.006000
vn 2.822565 1.359268 -2.991986
v -0.014190 -0.006834 0.006000
vn 2.993631 0.923396 -2.991993
v -0.015050 -0.004642 0.006000
vn 3.097820 0.466903 -2.991992
v -0.015574 -0.002347 0.006000
vn 0.000000 0.000000 -6.283190
v 0.000000 0.000000 0.006000
# 208 vertices, 0 vertices normals

f 1//1 2//2 3//3
f 3//3 2//2 4//4
f 3//3 4//4 5//5
f 5//5 4//4 6//6
f 5//5 6//6 7//7
f 7//7 6//6 8//8
f 7//7 8//8 9//9
f 9//9 8//8 10//10
f 9//9 10//10 11//11
f 11//11 10//10 12//12
f 11//11 12//12 13//13
f 13//13 12//12 14//14
f 13//13 14//14 15//15
f 15//15 14//14 16//16
f 15//15 16//16 17//17
f 17//17 16//16 18//18
f 17//17 18//18 19//19
f 19//19 18//18 20//20
f 19//19 20//20 21//21
f 21//21 20//20 22//22
f 21//21 22//22 23//23
f 23//23 22//22 24//24
f 23//23 24//24 25//25
f 25//25 24//24 26//26
f 25//25 26//26 27//27
f 27//27 26//26 28//28
f 27//27 28//28 29//29
f 29//29 28//28 30//30
f 29//29 30//30 31//31
f 31//31 30//30 32//32
f 31//31 32//32 33//33
f 33//33 32//32 34//34
f 33//33 34//34 35//35
f 35//35 34//34 36//36
f 35//35 36//36 37//37
f 37//37 36//36 38//38
f 37//37 38//38 39//39
f 39//39 38//38 40//40
f 39//39 40//40 41//41
f 41//41 40//40 42//42
f 41//41 42//42 43//43
f 43//43 42//42 44//44
f 43//43 44//44 45//45
f 45//45 44//44 46//46
f 45//45 46//46 47//47
f 47//47 46//46 48//48
f 47//47 48//48 49//49
f 49//49 48//48 50//50
f 49//49 50//50 51//51
f 51//51 50//50 52//52
f 51//51 52//52 53//53
f 53//53 52//52 54//54
f 53//53 54//54 55//55
f 55//55 54//54 56//56
f 55//55 56//56 57//57
f 57//57 56//56 58//58
f 57//57 58//58 59//59
f 59//59 58//58 60//60
f 59//59 60//60 61//61
f 61//61 60//60 62//62
f 61//61 62//62 63//63
f 63//63 62//62 64//64
f 63//63 64//64 65//65
f 65//65 64//64 66//66
f 65//65 66//66 67//67
f 67//67 66//66 68//68
f 67//67 68//68 69//69
f 69//69 68//68 70//70
f 69//69 70//70 71//71
f 71//71 70//70 72//72
f 71//71 72//72 73//73
f 73//73 72//72 74//74
f 73//73 74//74 75//75
f 75//75 74//74 76//76
f 75//75 76//76 77//77
f 77//77 76//76 78//78
f 77//77 78//78 79//79
f 79//79 78//78 80//80
f 79//79 80//80 81//81
f 81//81 80//80 82//82
f 81//81 82//82 83//83
f 83//83 82//82 84//84
f 83//83 84//84 85//85
f 85//85 84//84 86//86
f 85//85 86//86 87//87
f 87//87 86//86 88//88
f 87//87 88//88 89//89
f 89//89 88//88 90//90
f 89//89 90//90 91//91
f 91//91 90//90 92//92
f 91//91 92//92 93//93
f 93//93 92//92 94//94
f 93//93 94//94 95//95
f 95//95 94//94 96//96
f 95//95 96//96 97//97
f 97//97 96//96 98//98
f 97//97 98//98 99//99
f 99//99 98//98 100//100
f 99//99 100//100 101//101
f 101//101 100//100 102//102
f 101//101 102//102 103//103
f 103//103 102//102 104//104
f 103//103 104//104 105//105
f 105//105 104//104 106//106
f 105//105 106//106 107//107
f 107//107 106//106 108//108
f 107//107 108//108 109//109
f 109//109 108//108 110//110
f 109//109 110//110 111//111
f 111//111 110//110 112//112
f 111//111 112//112 113//113
f 113//113 112//112 114//114
f 113//113 114//114 115//115
f 115//115 114//114 116//116
f 115//115 116//116 117//117
f 117//117 116//116 118//118
f 117//117 118//118 119//119
f 119//119 118//118 120//120
f 119//119 120//120 1//1
f 1//1 120//120 2//2
f 64//64 62//62 121//121
f 121//121 62//62 60//60
f 121//121 60//60 58//58
f 70//70 68//68 121//121
f 121//121 68//68 66//66
f 121//121 66//66 64//64
f 76//76 74//74 121//121
f 121//121 74//74 72//72
f 121//121 72//72 70//70
f 82//82 80//80 121//121
f 121//121 80//80 78//78
f 121//121 78//78 76//76
f 88//88 86//86 121//121
f 121//121 86//86 84//84
f 121//121 84//84 82//82
f 94//94 92//92 121//121
f 121//121 92//92 90//90
f 121//121 90//90 88//88
f 100//100 98//98 121//121
f 121//121 98//98 96//96
f 121//121 96//96 94//94
f 106//106 104//104 121//121
f 121//121 104//104 102//102
f 121//121 102//102 100//100
f 112//112 110//110 121//121
f 121//121 110//110 108//108
f 121//121 108//108 106//106
f 118//118 116//116 121//121
f 121//121 116//116 114//114
f 121//121 114//114 112//112
f 4//4 2//2 121//121
f 121//121 2//2 120//120
f 121//121 120//120 118//118
f 10//10 8//8 121//121
f 121//121 8//8 6//6
f 121//121 6//6 4//4
f 16//16 14//14 121//121
f 121//121 14//14 12//12
f 121//121 12//12 10//10
f 22//22 20//20 121//121
f 121//121 20//20 18//18
f 121//121 18//18 16//16
f 28//28 26//26 121//121
f 121//121 26//26 24//24
f 121//121 24//24 22//22
f 34//34 32//32 121//121
f 121//121 32//32 30//30
f 121//121 30//30 28//28
f 40//40 38//38 121//121
f 121//121 38//38 36//36
f 121//121 36//36 34//34
f 46//46 44//44 121//121
f 121//121 44//44 42//42
f 121//121 42//42 40//40
f 52//52 50//50 121//121
f 121//121 50//50 48//48
f 121//121 48//48 46//46
f 58//58 56//56 121//121
f 121//121 56//56 54//54
f 121//121 54//54 52//52
f 122//122 91//91 123//123
f 123//123 91//91 93//93
f 123//123 93//93 124//124
f 125//125 117//117 126//126
f 126//126 117//117 119//119
f 126//126 119//119 127//127
f 127//127 119//119 1//1
f 127//127 1//1 128//128
f 129//129 25//25 130//130
f 130//130 25//25 27//27
f 130//130 27//27 131//131
f 132//132 111//111 133//133
f 133//133 111//111 113//113
f 133//133 113//113 125//125
f 125//125 113//113 115//115
f 125//125 115//115 117//117
f 134//134 105//105 135//135
f 135//135 105//105 107//107
f 135//135 107//107 132//132
f 132//132 107//107 109//109
f 132//132 109//109 111//111
f 136//136 37//37 137//137
f 137//137 37//37 39//39
f 137//137 39//39 138//138
f 138//138 39//39 41//41
f 138//138 41//41 139//139
f 27//27 29//29 131//131
f 131//131 29//29 31//31
f 131//131 31//31 140//140
f 140//140 31//31 33//33
f 140//140 33//33 136//136
f 136//136 33//33 35//35
f 136//136 35//35 37//37
f 141//141 17//17 142//142
f 142//142 17//17 19//19
f 142//142 19//19 143//143
f 143//143 19//19 21//21
f 143//143 21//21 129//129
f 129//129 21//21 23//23
f 129//129 23//23 25//25
f 93//93 95//95 124//124
f 124//124 95//95 97//97
f 124//124 97//97 144//144
f 144//144 97//97 99//99
f 144//144 99//99 145//145
f 145//145 99//99 101//101
f 145//145 101//101 134//134
f 134//134 101//101 103//103
f 134//134 103//103 105//105
f 146//146 85//85 147//147
f 147//147 85//85 87//87
f 147//147 87//87 122//122
f 122//122 87//87 89//89
f 122//122 89//89 91//91
f 148//148 77//77 149//149
f 149//149 77//77 79//79
f 149//149 79//79 150//150
f 150//150 79//79 81//81
f 150//150 81//81 146//146
f 146//146 81//81 83//83
f 146//146 83//83 85//85
f 151//151 51//51 152//152
f 152//152 51//51 53//53
f 152//152 53//53 153//153
f 154//154 11//11 155//155
f 155//155 11//11 13//13
f 155//155 13//13 141//141
f 141//141 13//13 15//15
f 141//141 15//15 17//17
f 156//156 65//65 157//157
f 157//157 65//65 67//67
f 157//157 67//67 158//158
f 41//41 43//43 139//139
f 139//139 43//43 45//45
f 139//139 45//45 159//159
f 159//159 45//45 47//47
f 159//159 47//47 151//151
f 151//151 47//47 49//49
f 151//151 49//49 51//51
f 53//53 55//55 153//153
f 153//153 55//55 57//57
f 153//153 57//57 160//160
f 160//160 57//57 59//59
f 160//160 59//59 161//161
f 161//161 59//59 162//162
f 161//161 162//162 156//156
f 156//156 162//162 63//63
f 156//156 63//63 65//65
f 1//1 3//3 128//128
f 128//128 3//3 5//5
f 128//128 5//5 163//163
f 163//163 5//5 7//7
f 163//163 7//7 154//154
f 154//154 7//7 9//9
f 154//154 9//9 11//11
f 67//67 69//69 158//158
f 158//158 69//69 71//71
f 158//158 71//71 164//164
f 164//164 71//71 73//73
f 164//164 73//73 148//148
f 148//148 73//73 75//75
f 148//148 75//75 77//77
f 165//165 166//166 167//167
f 167//167 166//166 128//128
f 167//167 128//128 168//168
f 168//168 128//128 163//163
f 168//168 163//163 169//169
f 169//169 163//163 154//154
f 169//169 154//154 170//170
f 170//170 154//154 155//155
f 170//170 155//155 171//171
f 171//171 155//155 141//141
f 171//171 141//141 172//172
f 172//172 141//141 142//142
f 172//172 142//142 173//173
f 173//173 142//142 143//143
f 173//173 143//143 174//174
f 174//174 143//143 129//129
f 174//174 129//129 175//175
f 175//175 129//129 130//130
f 175//175 130//130 176//176
f 176//176 130//130 131//131
f 176//176 131//131 177//177
f 177//177 131//131 140//140
f 177//177 140//140 178//178
f 178//178 140//140 136//136
f 178//178 136//136 179//179
f 179//179 136//136 137//137
f 179//179 137//137 180//180
f 180//180 137//137 138//138
f 180//180 138//138 181//181
f 181//181 138//138 139//139
f 181//181 139//139 182//182
f 182//182 139//139 159//159
f 182//182 159//159 183//183
f 183//183 159//159 151//151
f 183//183 151//151 184//184
f 184//184 151//151 152//152
f 184//184 152//152 185//185
f 185//185 152//152 153//153
f 185//185 153//153 186//186
f 186//186 153//153 160//160
f 186//186 160//160 187//187
f 187//187 160//160 161//161
f 187//187 161//161 188//188
f 188//188 161//161 156//156
f 188//188 156//156 189//189
f 189//189 156//156 157//157
f 189//189 157//157 190//190
f 190//190 157//157 158//158
f 190//190 158//158 191//191
f 191//191 158//158 164//164
f 191//191 164//164 192//192
f 192//192 164//164 148//148
f 192//192 148//148 193//193
f 193//193 148//148 149//149
f 193//193 149//149 194//194
f 194//194 149//149 150//150
f 194//194 150//150 195//195
f 195//195 150//150 146//146
f 195//195 146//146 196//196
f 196//196 146//146 147//147
f 196//196 147//147 197//197
f 197//197 147//147 122//122
f 197//197 122//122 198//198
f 198//198 122//122 123//123
f 198//198 123//123 199//199
f 199//199 123//123 124//124
f 199//199 124//124 200//200
f 200//200 124//124 144//144
f 200//200 144//144 201//201
f 201//201 144//144 145//145
f 201//201 145//145 202//202
f 202//202 145//145 134//134
f 202//202 134//134 203//203
f 203//203 134//134 135//135
f 203//203 135//135 204//204
f 204//204 135//135 132//132
f 204//204 132//132 205//205
f 205//205 132//132 133//133
f 205//205 133//133 206//206
f 206//206 133//133 125//125
f 206//206 125//125 207//207
f 207//207 125//125 126//126
f 207//207 126//126 165//165
f 165//165 126//126 166//166
f 206//206 207//207 208//208
f 208//208 207//207 165//165
f 208//208 165//165 167//167
f 203//203 204//204 208//208
f 208//208 204//204 205//205
f 208//208 205//205 206//206
f 200//200 201//201 208//208
f 208//208 201//201 202//202
f 208//208 202//202 203//203
f 197//197 198//198 208//208
f 208//208 198//198 199//199
f 208//208 199//199 200//200
f 194//194 195//195 208//208
f 208//208 195//195 196//196
f 208//208 196//196 197//197
f 191//191 192//192 208//208
f 208//208 192//192 193//193
f 208//208 193//193 194//194
f 188//188 189//189 208//208
f 208//208 189//189 190//190
f 208//208 190//190 191//191
f 185//185 186//186 208//208
f 208//208 186//186 187//187
f 208//208 187//187 188//188
f 182//182 183//183 208//208
f 208//208 183//183 184//184
f 208//208 184//184 185//185
f 179//179 180//180 208//208
f 208//208 180//180 181//181
f 208//208 181//181 182//182
f 176//176 177//177 208//208
f 208//208 177//177 178//178
f 208//208 178//178 179//179
f 173//173 174//174 208//208
f 208//208 174//174 175//175
f 208//208 175//175 176//176
f 170//170 171//171 208//208
f 208//208 171//171 172//172
f 208//208 172//172 173//173
f 167//167 168//168 208//208
f 208//208 168//168 169//169
f 208//208 169//169 170//170
# 408 faces, 0 coords texture

# End of File
